<?xml version="1.0" standalone="no"?>
<!DOCTYPE svg PUBLIC "-//W3C//DTD SVG 20010904//EN"
 "http://www.w3.org/TR/2001/REC-SVG-20010904/DTD/svg10.dtd">
<svg version="1.0" xmlns="http://www.w3.org/2000/svg"
 width="76.000000pt" height="80.000000pt" viewBox="0 0 76.000000 80.000000"
 preserveAspectRatio="xMidYMid meet">

<g transform="translate(0.000000,80.000000) scale(0.100000,-0.100000)"
fill="#000000" stroke="none">
<path d="M55 720 c-2 -3 -4 -60 -4 -127 l-2 -123 40 0 40 0 3 63 3 62 35 -62
c47 -84 66 -84 114 0 l35 62 1 -62 0 -63 40 0 40 0 0 126 0 125 -52 -3 c-52
-3 -52 -3 -87 -61 l-34 -58 -35 60 c-35 58 -36 59 -85 63 -27 1 -50 1 -52 -2z"/>
<path d="M484 714 c-42 -21 -59 -56 -59 -125 0 -47 4 -62 24 -83 52 -55 170
-58 223 -6 25 25 28 36 28 92 0 74 -16 103 -66 124 -44 18 -111 17 -150 -2z
m117 -74 c12 -7 19 -21 19 -38 0 -44 -12 -54 -61 -50 -42 3 -44 4 -47 38 -5
51 39 76 89 50z"/>
<path d="M60 310 l0 -130 160 0 c125 0 168 3 190 15 17 9 30 20 30 24 0 5 2
16 6 24 3 8 -6 28 -20 44 -17 20 -22 33 -15 40 6 6 9 26 7 44 -5 56 -44 69
-215 69 l-143 0 0 -130z m255 45 c0 -5 -33 -11 -72 -13 -61 -2 -73 0 -73 13 0
13 12 15 73 13 39 -2 72 -7 72 -13z m25 -94 c0 -15 -29 -21 -101 -21 -55 0
-69 3 -69 15 0 12 16 15 85 15 47 0 85 -4 85 -9z"/>
<path d="M517 433 c-4 -3 -7 -62 -7 -130 l0 -123 50 0 50 0 0 130 0 130 -43 0
c-24 0 -47 -3 -50 -7z"/>
</g>
</svg>
